<?xml version="1.0" encoding="UTF-8"?>
<!-- Generator: visioncortex VTracer 0.6.12 -->
<svg version="1.1" xmlns="http://www.w3.org/2000/svg" width="800" height="800">
<path d="M0 0 C6.93 0 13.86 0 21 0 C30.371 22.072 39.562 44.205 48.527 66.445 C48.879 67.318 49.231 68.191 49.594 69.09 C49.947 69.966 50.3 70.842 50.664 71.745 C55.032 82.574 59.453 93.381 63.875 104.188 C64.07 104.663 64.07 104.663 65.054 107.071 C66.158 109.77 67.262 112.469 68.367 115.168 C68.691 115.961 69.016 116.754 69.35 117.571 C69.503 117.944 69.503 117.944 70.277 119.833 C70.565 120.537 70.853 121.241 71.15 121.966 C71.978 123.947 72.85 125.905 73.727 127.865 C75 131 75 131 75 134 C68.07 134 61.14 134 54 134 C52.024 128.928 50.048 123.856 48.073 118.784 C47.402 117.058 46.729 115.333 46.057 113.607 C45.091 111.128 44.125 108.648 43.16 106.168 C42.859 105.396 42.558 104.624 42.248 103.829 C41.109 100.901 39.994 97.981 39 95 C20.52 94.67 2.04 94.34 -17 94 C-17.66 96.97 -18.32 99.94 -19 103 C-19.807 105.485 -20.662 107.955 -21.566 110.406 C-21.805 111.057 -22.044 111.708 -22.291 112.378 C-22.789 113.734 -23.291 115.088 -23.796 116.441 C-24.57 118.521 -25.336 120.604 -26.1 122.688 C-29.851 132.851 -29.851 132.851 -31 134 C-32.416 134.087 -33.836 134.107 -35.254 134.098 C-36.108 134.094 -36.962 134.091 -37.842 134.088 C-38.74 134.08 -39.637 134.071 -40.562 134.062 C-41.464 134.058 -42.366 134.053 -43.295 134.049 C-45.53 134.037 -47.765 134.02 -50 134 C-48.702 127.466 -46.847 121.518 -44.387 115.336 C-44.025 114.41 -43.663 113.484 -43.29 112.531 C-42.505 110.526 -41.718 108.523 -40.928 106.52 C-38.78 101.074 -36.653 95.618 -34.523 90.164 C-34.076 89.02 -33.629 87.876 -33.168 86.698 C-27.976 73.41 -22.892 60.081 -17.812 46.75 C-16.944 44.473 -16.076 42.196 -15.208 39.919 C-13.191 34.63 -11.176 29.341 -9.162 24.051 C-7.629 20.025 -6.095 15.999 -4.561 11.973 C-3.041 7.982 -1.52 3.991 0 0 Z M10 17 C9.826 17.61 9.651 18.219 9.472 18.847 C4.817 34.943 -0.699 50.536 -6.782 66.138 C-7.061 66.854 -7.34 67.57 -7.628 68.307 C-8.157 69.661 -8.688 71.015 -9.222 72.367 C-11 76.893 -11 76.893 -11 78 C3.52 78 18.04 78 33 78 C26.127 58.526 26.127 58.526 23.676 52 C23.539 51.634 23.539 51.634 22.849 49.783 C21.718 46.754 20.585 43.727 19.451 40.699 C13.542 24.906 13.542 24.906 11 17 C10.67 17 10.34 17 10 17 Z " fill="#FFFFFF" transform="translate(348,339)"/>
<path d="M0 0 C4.307 1.324 7.835 3.441 11.652 5.801 C13.109 6.683 14.566 7.564 16.023 8.445 C16.722 8.872 17.42 9.298 18.14 9.737 C21.134 11.543 24.171 13.268 27.215 14.988 C27.215 15.648 27.215 16.308 27.215 16.988 C23.382 19.852 19.91 21.932 15.215 22.988 C9.955 21.653 5.54 18.128 1.215 14.988 C-0.785 13.988 -0.785 13.988 -2.832 14.456 C-9.471 16.835 -16.181 19.461 -20.785 24.988 C-23.596 33.598 -22.656 43.094 -21.785 51.988 C-21.381 51.778 -21.381 51.778 -19.336 50.711 C-18.267 50.163 -17.199 49.615 -16.098 49.051 C-15.57 48.778 -15.57 48.778 -12.898 47.398 C-3.058 42.941 5.49 45.358 15.215 48.988 C19.833 51.236 24.243 53.799 28.652 56.426 C29.865 57.136 31.078 57.845 32.292 58.553 C34.747 59.988 37.197 61.431 39.643 62.88 C43.032 64.885 46.44 66.857 49.852 68.824 C51.848 69.982 53.844 71.141 55.84 72.301 C56.763 72.833 57.687 73.365 58.638 73.914 C59.481 74.409 60.323 74.904 61.191 75.414 C61.924 75.841 62.657 76.268 63.413 76.708 C65.215 77.988 65.215 77.988 67.215 80.988 C67.482 83.602 67.638 86.107 67.691 88.727 C67.708 89.485 67.724 90.243 67.74 91.025 C67.768 92.629 67.789 94.234 67.805 95.839 C67.828 97.475 67.869 99.111 67.928 100.747 C68.413 114.175 68.413 114.175 65.737 118.225 C63.644 119.842 61.619 120.893 59.215 121.988 C57.586 122.975 55.963 123.972 54.348 124.98 C52.681 125.947 51.012 126.908 49.34 127.863 C48.486 128.361 47.633 128.858 46.754 129.371 C40.474 132.988 40.474 132.988 38.215 132.988 C38.215 128.368 38.215 123.748 38.215 118.988 C39.358 118.617 40.502 118.246 41.68 117.863 C46.481 115.971 50.925 114.096 54.215 109.988 C56.574 102.321 55.837 93.896 55.215 85.988 C54.486 85.712 53.756 85.436 53.005 85.151 C50.379 84.057 48.023 82.821 45.57 81.387 C44.729 80.897 43.888 80.407 43.021 79.902 C42.589 79.648 42.589 79.648 40.402 78.363 C39.519 77.848 38.635 77.332 37.725 76.801 C35.553 75.533 33.383 74.262 31.215 72.988 C31.261 73.739 31.308 74.489 31.355 75.262 C31.748 86.38 29.12 93.512 21.642 101.711 C17.381 105.709 12.45 108.341 7.34 111.113 C5.626 112.07 3.912 113.027 2.2 113.986 C1.018 114.646 -0.165 115.304 -1.349 115.959 C-5.643 118.335 -9.894 120.776 -14.129 123.254 C-14.722 123.6 -15.316 123.947 -15.927 124.304 C-18.789 125.976 -21.649 127.65 -24.507 129.329 C-25.021 129.627 -25.021 129.627 -27.621 131.137 C-28.524 131.664 -29.427 132.192 -30.357 132.736 C-32.564 133.874 -34.337 134.63 -36.785 134.988 C-44.16 132.355 -51.089 127.729 -57.848 123.801 C-58.586 123.373 -59.324 122.945 -60.085 122.505 C-60.781 122.093 -61.478 121.682 -62.195 121.258 C-62.815 120.893 -63.436 120.528 -64.074 120.152 C-67.455 117.852 -67.455 117.852 -68.785 115.988 C-69.047 113.471 -69.135 111.207 -69.078 108.695 C-69.074 107.989 -69.07 107.283 -69.065 106.556 C-69.048 104.304 -69.011 102.053 -68.973 99.801 C-68.958 98.273 -68.944 96.745 -68.932 95.217 C-68.899 91.474 -68.847 87.731 -68.785 83.988 C-68.039 84.287 -67.293 84.585 -66.524 84.893 C-64.944 85.525 -63.357 86.143 -61.757 86.722 C-59.732 87.615 -58.326 88.387 -56.785 89.988 C-56.235 93.203 -56.727 96.321 -57.035 99.551 C-57.168 104.287 -57.15 108.285 -54.097 112.094 C-49.093 116.419 -43.281 119.606 -36.785 120.988 C-31.677 120.358 -28.742 118.154 -24.785 114.988 C-22.712 113.681 -20.629 112.388 -18.535 111.113 C-16.948 110.078 -15.363 109.038 -13.785 107.988 C-14.075 107.812 -14.075 107.812 -15.543 106.922 C-23.942 101.614 -29.835 95.687 -32.785 85.988 C-33.9 79.031 -33.946 72.168 -33.953 65.133 C-33.955 64.523 -33.955 64.523 -33.963 61.436 C-33.968 58.869 -33.971 56.301 -33.97 53.734 C-33.973 49.803 -33.991 45.874 -34.01 41.943 C-34.013 39.444 -34.015 36.945 -34.016 34.445 C-34.023 33.271 -34.03 32.097 -34.037 30.888 C-34.034 29.793 -34.031 28.698 -34.028 27.57 C-34.03 26.61 -34.031 25.65 -34.032 24.662 C-33.762 21.733 -33.098 19.614 -31.785 16.988 C-29.434 15.183 -29.434 15.183 -26.516 13.543 C-25.462 12.941 -24.408 12.339 -23.322 11.719 C-22.217 11.106 -21.112 10.494 -19.973 9.863 C-18.879 9.243 -17.785 8.623 -16.658 7.984 C-14.617 6.828 -12.573 5.677 -10.524 4.535 C-8.691 3.499 -6.883 2.416 -5.105 1.289 C-2.785 -0.012 -2.785 -0.012 0 0 Z M-16.785 63.988 C-21.025 69.375 -21.457 74.026 -21.238 80.824 C-20.383 86.798 -17.56 90.303 -13.285 94.363 C-7.568 98.079 -2.531 98.811 4.215 97.988 C10.875 95.953 14.753 92.044 18.324 86.16 C20.4 81.097 19.929 74.873 18.633 69.637 C16.195 63.87 11.794 60.593 6.215 57.988 C-2.022 55.465 -10.78 57.812 -16.785 63.988 Z " fill="#E98149" transform="translate(209.78515625,328.01171875)"/>
<path d="M0 0 C6.952 5.859 10.909 13.115 12.438 22.062 C12.547 23.871 12.613 25.683 12.643 27.495 C12.653 28.026 12.653 28.026 12.703 30.71 C12.72 31.843 12.737 32.977 12.754 34.145 C12.775 35.314 12.795 36.483 12.817 37.688 C12.882 41.417 12.941 45.146 13 48.875 C13.043 51.406 13.087 53.936 13.131 56.467 C13.238 62.665 13.339 68.864 13.438 75.062 C16.737 75.722 20.038 76.382 23.438 77.062 C23.438 82.012 23.438 86.962 23.438 92.062 C20.895 92.144 18.356 92.203 15.812 92.25 C15.1 92.275 14.387 92.3 13.652 92.326 C8.824 92.393 5.638 91.696 1.438 89.062 C-1.162 86.246 -2.904 83.488 -4.562 80.062 C-4.835 80.328 -4.835 80.328 -6.215 81.672 C-17.694 92.425 -28.18 93.677 -43.328 93.194 C-52.649 92.644 -60.191 88.198 -66.875 81.875 C-72.155 73.075 -73.603 65.174 -71.562 55.062 C-68.693 46.327 -62.361 41.408 -54.562 37.062 C-48.072 33.972 -41.491 33.921 -34.445 33.965 C-33.588 33.966 -32.731 33.968 -31.848 33.969 C-29.128 33.975 -26.408 33.987 -23.688 34 C-21.836 34.005 -19.984 34.01 -18.133 34.014 C-13.609 34.025 -9.086 34.042 -4.562 34.062 C-4.687 32.156 -4.822 30.25 -4.961 28.344 C-5.035 27.282 -5.109 26.221 -5.185 25.127 C-5.799 20.14 -7.229 15.924 -11.242 12.723 C-19.296 7.866 -29.584 7.714 -38.594 9.746 C-44.149 11.762 -47.335 14.12 -50.562 19.062 C-50.893 19.887 -50.893 19.887 -52.562 24.062 C-58.173 24.062 -63.783 24.062 -69.562 24.062 C-68.063 14.764 -64.689 7.297 -57.312 1.188 C-41.697 -9.996 -15.879 -11.235 0 0 Z M-51.562 52.062 C-54.464 55.74 -55.415 59.011 -56.062 63.625 C-55.352 68.513 -53.883 72.28 -49.879 75.355 C-42.276 79.884 -33.51 80.259 -24.922 78.531 C-16.147 75.785 -10.313 70.899 -5.75 62.875 C-4.639 59.309 -4.436 56.997 -4.488 53.324 C-4.499 52.338 -4.51 51.351 -4.521 50.335 C-4.528 49.96 -4.528 49.96 -4.562 48.062 C-9.649 47.963 -14.734 47.891 -19.821 47.843 C-21.548 47.823 -23.274 47.796 -25 47.761 C-44.851 47.37 -44.851 47.37 -51.562 52.062 Z " fill="#FFFFFF" transform="translate(628.5625,380.9375)"/>
<path d="M0 0 C6.979 5.11 11.324 11.754 13.062 20.25 C13.062 21.9 13.062 23.55 13.062 25.25 C7.783 25.25 2.503 25.25 -2.938 25.25 C-3.742 23.538 -4.546 21.826 -5.375 20.062 C-8.862 13.627 -12.979 10.764 -19.895 8.652 C-28.382 6.981 -36.273 8.341 -43.938 12.25 C-46.763 14.55 -47.706 15.858 -48.301 19.43 C-48.644 25.414 -48.644 25.414 -46.217 28.285 C-39.233 34.306 -26.724 34.358 -17.898 35.623 C-7.565 37.218 2.752 39.788 10.25 47.5 C15.076 54.822 16.217 61.981 14.629 70.605 C12.619 77.859 8.601 83.085 2.184 87.012 C-11.768 94.223 -27.997 95.957 -43.25 91.625 C-52.663 88.115 -61.536 82.27 -66.035 72.984 C-67.863 67.986 -67.938 64.888 -67.938 59.25 C-62.327 59.25 -56.717 59.25 -50.938 59.25 C-50.525 60.632 -50.113 62.014 -49.688 63.438 C-47.724 69.212 -45.456 72.618 -40 75.5 C-31.906 79.426 -21.462 79.632 -12.938 77 C-7.901 75.004 -4.769 73.052 -2.438 68 C-1.905 64.008 -2.281 61.779 -3.527 58.047 C-8.826 51.295 -20.828 51.665 -28.675 50.523 C-40.931 48.718 -52.812 46.654 -61.688 37.375 C-66.246 31.044 -66.735 24.863 -65.938 17.25 C-64.124 8.985 -59.718 4.091 -52.938 -0.75 C-37.517 -10.471 -15.265 -9.265 0 0 Z " fill="#FFFFFF" transform="translate(531.9375,380.75)"/>
<path d="M0 0 C5.94 0 11.88 0 18 0 C18 44.22 18 88.44 18 134 C12.06 134 6.12 134 0 134 C0 89.78 0 45.56 0 0 Z " fill="#FFFFFF" transform="translate(432,339)"/>
<path d="M0 0 C2.897 1.206 2.897 1.206 5.879 2.887 C6.422 3.191 6.422 3.191 9.17 4.732 C9.73 5.055 9.73 5.055 12.562 6.688 C13.686 7.313 14.809 7.939 15.967 8.584 C26.45 14.532 26.45 14.532 30 19 C30.568 22.413 30.568 22.413 30.488 26.27 C30.481 26.951 30.474 27.632 30.467 28.333 C30.439 30.494 30.376 32.652 30.312 34.812 C30.287 36.283 30.265 37.754 30.244 39.225 C30.189 42.817 30.103 46.408 30 50 C21.359 47.191 21.359 47.191 18 44 C17.261 40.558 17.434 37.25 17.625 33.75 C17.639 33.282 17.639 33.282 17.707 30.914 C17.778 28.607 17.876 26.305 18 24 C17.319 23.756 16.639 23.513 15.938 23.262 C11.777 21.475 7.993 19.071 4.172 16.658 C1.548 15.087 -0.434 14.004 -3.527 13.984 C-6.213 15.087 -8.44 16.575 -10.81 18.238 C-13.855 20.322 -16.493 21.736 -20 23 C-24.693 21.941 -28.169 19.863 -32 17 C-32 16.34 -32 15.68 -32 15 C-28.417 12.847 -24.824 10.711 -21.221 8.591 C-19.998 7.868 -18.778 7.141 -17.561 6.409 C-15.806 5.354 -14.041 4.316 -12.273 3.281 C-11.216 2.653 -10.158 2.024 -9.068 1.377 C-5.64 -0.162 -3.712 -0.481 0 0 Z " fill="#E9834C" transform="translate(247,349)"/>
<path d="M0 0 C0.124 4.466 0.215 8.93 0.275 13.397 C0.3 14.915 0.334 16.433 0.377 17.951 C0.438 20.138 0.466 22.324 0.488 24.512 C0.514 25.826 0.541 27.141 0.568 28.495 C-0.153 32.947 -1.514 34.217 -5 37 C-8.982 39.704 -13.183 42.013 -17.375 44.375 C-18.486 45.029 -19.597 45.682 -20.742 46.355 C-21.825 46.968 -22.908 47.58 -24.023 48.211 C-25.002 48.771 -25.981 49.331 -26.99 49.908 C-31.835 51.666 -35.411 50.741 -39.998 48.601 C-40.967 48.02 -41.935 47.439 -42.934 46.84 C-43.994 46.211 -45.054 45.583 -46.146 44.936 C-47.233 44.276 -48.319 43.617 -49.438 42.938 C-50.551 42.274 -51.664 41.611 -52.811 40.928 C-55.547 39.295 -58.276 37.653 -61 36 C-58.983 33.943 -57.095 32.247 -54.625 30.75 C-54.06 30.394 -53.496 30.038 -52.914 29.672 C-50.202 28.72 -48.735 29.138 -46 30 C-42.866 31.755 -39.867 33.67 -36.84 35.602 C-34 37 -34 37 -32.061 36.717 C-29.928 35.975 -28.129 35.072 -26.18 33.934 C-25.48 33.531 -24.78 33.128 -24.059 32.713 C-23.338 32.292 -22.617 31.871 -21.875 31.438 C-20.437 30.599 -18.997 29.764 -17.555 28.934 C-16.92 28.563 -16.286 28.192 -15.632 27.81 C-14 27 -14 27 -12 27 C-12.058 26.431 -12.115 25.862 -12.175 25.275 C-13.617 8.933 -13.617 8.933 -9.586 4.113 C-2.912 0 -2.912 0 0 0 Z " fill="#E9814A" transform="translate(241,432)"/>
<path d="M0 0 C0.949 4.941 1.302 9.105 0 14 C-4 18.296 -9.679 20.74 -15 23 C-15.66 23 -16.32 23 -17 23 C-16.67 30.92 -16.34 38.84 -16 47 C-13 48 -13 48 -10.117 46.566 C-9.047 45.905 -7.977 45.244 -6.875 44.562 C-1.061 41 -1.061 41 0 41 C0.726 45.85 1.044 50.184 0 55 C-3.492 58.53 -7.258 60.566 -12 62 C-15.989 61.751 -18.806 60.181 -22.188 58.125 C-23.047 57.612 -23.907 57.099 -24.793 56.57 C-27 55 -27 55 -29 52 C-29.219 49.434 -29.328 46.978 -29.336 44.41 C-29.343 43.669 -29.349 42.928 -29.356 42.165 C-29.366 40.599 -29.371 39.033 -29.371 37.467 C-29.375 35.074 -29.411 32.683 -29.449 30.291 C-29.455 28.768 -29.459 27.245 -29.461 25.723 C-29.475 25.009 -29.49 24.295 -29.504 23.56 C-29.475 20.309 -29.279 18.377 -27.322 15.733 C-24.756 13.818 -22.167 12.15 -19.395 10.547 C-18.329 9.928 -17.264 9.309 -16.166 8.672 C-15.059 8.038 -13.953 7.403 -12.812 6.75 C-11.694 6.1 -10.576 5.451 -9.424 4.781 C-1.152 0 -1.152 0 0 0 Z " fill="#E9814A" transform="translate(170,350)"/>
<path d="M0 0 C0 4.62 0 9.24 0 14 C-0.99 14 -1.98 14 -3 14 C-2.67 10.37 -2.34 6.74 -2 3 C-2.66 2.67 -3.32 2.34 -4 2 C-1 0 -1 0 0 0 Z " fill="#F3A880" transform="translate(170,350)"/>
<path d="M0 0 C6.93 0 13.86 0 21 0 C21 0.33 21 0.66 21 1 C15.06 1 9.12 1 3 1 C3 1.66 3 2.32 3 3 C2.34 3.33 2.34 3.33 -1 5 C-0.67 3.35 -0.34 1.7 0 0 Z " fill="#FFFFFF" transform="translate(348,339)"/>
<path d="M0 0 C0.33 0 0.66 0 1 0 C1.049 0.797 1.098 1.593 1.148 2.414 C1.891 12.938 1.891 12.938 4 18 C3.01 17.67 2.02 17.34 1 17 C-0.533 13.935 -0.103 10.732 -0.062 7.375 C-0.058 6.669 -0.053 5.962 -0.049 5.234 C-0.037 3.49 -0.019 1.745 0 0 Z " fill="#F4BFA2" transform="translate(188,400)"/>
<path d="M0 0 C-0.66 1.98 -1.32 3.96 -2 6 C-2.825 5.67 -2.825 5.67 -7 4 C-3.174 0 -3.174 0 0 0 Z " fill="#F1A67E" transform="translate(187,464)"/>
<path d="M0 0 C0.66 0.33 1.32 0.66 2 1 C-2.75 5.875 -2.75 5.875 -5 7 C-5 5.68 -5 4.36 -5 3 C-2.625 1.188 -2.625 1.188 0 0 Z " fill="#EF9C70" transform="translate(235,435)"/>
<path d="M0 0 C0.66 0.66 1.32 1.32 2 2 C1.01 2.33 0.02 2.66 -1 3 C-1 2.34 -1 1.68 -1 1 C-1.577 1.351 -2.155 1.701 -2.75 2.062 C-5.358 3.149 -6.394 2.931 -9 2 C-5.548 -0.302 -4.053 -0.345 0 0 Z " fill="#F3B99B" transform="translate(247,349)"/>
</svg>
