<svg width="151" height="40" viewBox="0 0 151 40" fill="none" xmlns="http://www.w3.org/2000/svg">
<g clip-path="url(#clip0_415_7)">
<path fill-rule="evenodd" clip-rule="evenodd" d="M12.9908 18.3863V24.8069L15.623 23.2869L18.8728 21.4154L25.3724 25.1584V32.6448L19.1857 36.2076V36.2182L12.6862 39.9612L9.43636 38.0896L6.1949 36.218V36.2091L3.24142 34.5083L0 32.6366V18.0202L3.24142 16.1485L6.1949 14.4477V7.33265L9.43636 5.46098L12.3899 3.76007V3.74322L15.6313 1.87156L18.8811 0L25.3806 3.74302V11.2294L19.1857 14.797V14.8188L12.9908 18.3864V18.3863ZM6.49015 14.989L3.55038 16.6819L0.946562 18.1854L6.39427 21.3227L12.051 18.1959L9.43623 16.6901L6.49009 14.9888L6.49015 14.989ZM13.2884 3.93617L18.8372 7.13167L24.4334 3.90882L21.8222 2.40503L18.8811 0.711259L15.9402 2.40493L13.2886 3.93617H13.2884ZM12.2497 33.0636L7.10046 36.0291L9.74528 37.5563L12.2539 39.001L12.2549 33.0725L12.2497 33.0636ZM18.1652 28.9807L18.1429 28.9422L18.2292 28.8926L15.6272 27.3941L12.9989 25.8804V28.9017V31.956L18.1652 28.9808V28.9807ZM18.2195 7.48741L15.6272 5.99454L12.6861 4.30077L9.74522 5.99444L7.11438 7.51358L12.6632 10.7092L18.1606 7.54321L18.1512 7.52685L18.2195 7.48741ZM6.81226 8.05093V11.0757V14.4619L12.2574 17.5977L12.2585 11.1873L6.81226 8.05093ZM24.425 25.3244L21.8138 23.8206L18.8728 22.1269L15.9319 23.8205L13.2981 25.3414L18.8469 28.5369L24.425 25.3244ZM6.15847 29.0578L3.24132 27.3778L0.617336 25.8626V28.8937V32.2813L3.55028 33.9749L6.15738 35.4763L6.15847 29.0578ZM6.15966 21.9637L0.617436 18.7719V21.7632V25.1509L3.55038 26.8444L6.15867 28.3465L6.15966 21.9637Z" fill="#01A1FF"/>
<path d="M146.233 25.817C145.185 25.817 144.28 25.6108 143.518 25.1984C142.761 24.7816 142.178 24.1891 141.769 23.4207C141.365 22.6479 141.162 21.7299 141.162 20.6663C141.162 19.6331 141.367 18.7302 141.776 17.9575C142.185 17.1804 142.762 16.577 143.505 16.1472C144.249 15.7131 145.126 15.496 146.135 15.496C146.849 15.496 147.501 15.6067 148.093 15.8281C148.685 16.0495 149.196 16.3773 149.626 16.8114C150.057 17.2455 150.392 17.7816 150.631 18.4197C150.87 19.0536 150.99 19.7807 150.99 20.6012V21.3955H142.278V19.5463H148.021C148.016 19.2076 147.936 18.906 147.78 18.6412C147.623 18.3763 147.408 18.1702 147.133 18.0225C146.863 17.8706 146.553 17.7946 146.2 17.7946C145.843 17.7946 145.524 17.8749 145.241 18.0355C144.958 18.1918 144.734 18.4067 144.569 18.6802C144.404 18.9494 144.317 19.2554 144.308 19.5984V21.4802C144.308 21.8883 144.388 22.2464 144.549 22.5546C144.71 22.8585 144.939 23.0951 145.235 23.2644C145.53 23.4337 145.883 23.5184 146.292 23.5184C146.575 23.5184 146.831 23.4793 147.061 23.4012C147.292 23.323 147.49 23.2079 147.655 23.056C147.821 22.9041 147.945 22.7175 148.028 22.496L150.957 22.5807C150.835 23.2362 150.568 23.807 150.155 24.2933C149.746 24.7751 149.209 25.1506 148.543 25.4197C147.877 25.6846 147.107 25.817 146.233 25.817Z" fill="white"/>
<path d="M140.647 15.6262L137.208 25.6281H133.554L130.122 15.6262H133.482L135.329 22.5155H135.433L137.286 15.6262H140.647Z" fill="white"/>
<path d="M125.702 25.6281V15.6263H128.893V25.6281H125.702ZM127.301 14.4607C126.852 14.4607 126.468 14.3131 126.146 14.0179C125.824 13.7183 125.663 13.358 125.663 12.937C125.663 12.5202 125.824 12.1642 126.146 11.8691C126.468 11.5695 126.852 11.4197 127.301 11.4197C127.753 11.4197 128.138 11.5695 128.456 11.8691C128.777 12.1642 128.939 12.5202 128.939 12.937C128.939 13.358 128.777 13.7183 128.456 14.0179C128.138 14.3131 127.753 14.4607 127.301 14.4607Z" fill="white"/>
<path d="M124.074 15.6262V17.9704H117.751V15.6262H124.074ZM119.075 13.23H122.266V22.483C122.266 22.6783 122.297 22.8368 122.358 22.9583C122.423 23.0755 122.517 23.1602 122.638 23.2123C122.76 23.26 122.906 23.2839 123.075 23.2839C123.197 23.2839 123.326 23.2731 123.461 23.2513C123.6 23.2253 123.704 23.2036 123.774 23.1862L124.257 25.4849C124.105 25.5283 123.889 25.5825 123.61 25.6476C123.336 25.7128 123.008 25.754 122.625 25.7713C121.877 25.8061 121.235 25.7192 120.7 25.5109C120.17 25.2982 119.763 24.9683 119.48 24.5212C119.202 24.074 119.067 23.5118 119.075 22.8346V13.23Z" fill="white"/>
<path d="M112.13 25.817C111.073 25.817 110.166 25.5999 109.41 25.1658C108.657 24.7317 108.078 24.1283 107.674 23.3555C107.269 22.5785 107.066 21.6799 107.066 20.6597C107.066 19.6352 107.269 18.7366 107.674 17.9639C108.083 17.1869 108.663 16.5813 109.416 16.1472C110.173 15.7131 111.076 15.496 112.124 15.496C113.051 15.496 113.857 15.6631 114.545 15.9975C115.237 16.3317 115.776 16.8049 116.164 17.417C116.555 18.0247 116.762 18.7388 116.783 19.5593H113.801C113.74 19.047 113.566 18.6455 113.279 18.3546C112.996 18.0638 112.626 17.9184 112.17 17.9184C111.8 17.9184 111.476 18.0225 111.197 18.2309C110.919 18.4349 110.701 18.7388 110.545 19.1425C110.393 19.5419 110.317 20.0368 110.317 20.6272C110.317 21.2176 110.393 21.7168 110.545 22.1249C110.701 22.5286 110.919 22.8346 111.197 23.043C111.476 23.247 111.8 23.3491 112.17 23.3491C112.466 23.3491 112.727 23.2861 112.953 23.1602C113.183 23.0343 113.372 22.8499 113.52 22.6067C113.668 22.3593 113.762 22.0597 113.801 21.7081H116.783C116.752 22.5329 116.546 23.2536 116.164 23.87C115.785 24.4864 115.252 24.9661 114.565 25.3091C113.882 25.6476 113.07 25.817 112.13 25.817Z" fill="white"/>
<path d="M102.236 21.3109V15.6262H105.421V25.6281H102.38V23.7658H102.275C102.053 24.3779 101.675 24.8641 101.14 25.2244C100.61 25.5804 99.9675 25.7583 99.2152 25.7583C98.5317 25.7583 97.9317 25.6021 97.4139 25.2895C96.8961 24.977 96.494 24.5407 96.207 23.9807C95.9194 23.4163 95.774 22.7565 95.7697 22.0012V15.6262H98.9604V21.376C98.9647 21.9186 99.1082 22.3462 99.3909 22.6588C99.6742 22.9713 100.059 23.1276 100.546 23.1276C100.864 23.1276 101.149 23.0582 101.401 22.9192C101.657 22.776 101.86 22.5698 102.008 22.3007C102.16 22.0272 102.236 21.6973 102.236 21.3109Z" fill="white"/>
<path d="M88.0353 25.6281V15.6263H91.1345V17.4495H91.239C91.4221 16.7897 91.7197 16.2991 92.1329 15.9779C92.5461 15.6523 93.0274 15.4895 93.5754 15.4895C93.7233 15.4895 93.8755 15.5004 94.032 15.5221C94.1885 15.5394 94.3345 15.5677 94.4693 15.6067V18.3742C94.3172 18.3221 94.1167 18.2809 93.8687 18.2504C93.6256 18.2201 93.4078 18.2049 93.216 18.2049C92.8381 18.2049 92.4966 18.2895 92.1916 18.4588C91.8916 18.6238 91.6547 18.856 91.4803 19.1556C91.3108 19.4507 91.226 19.798 91.226 20.1974V25.6281H88.0353Z" fill="white"/>
<path d="M86.4071 15.6262V17.9704H80.0838V15.6262H86.4071ZM81.4082 13.23H84.5996V22.483C84.5996 22.6783 84.6299 22.8368 84.6905 22.9583C84.7561 23.0755 84.8495 23.1602 84.9714 23.2123C85.0932 23.26 85.2392 23.2839 85.4087 23.2839C85.5306 23.2839 85.6586 23.2731 85.7935 23.2513C85.9327 23.2253 86.0372 23.2036 86.1071 23.1862L86.5896 25.4849C86.4374 25.5283 86.2222 25.5825 85.9438 25.6476C85.6697 25.7128 85.3413 25.754 84.9584 25.7713C84.2099 25.8061 83.5684 25.7192 83.0333 25.5109C82.5025 25.2982 82.0961 24.9683 81.8128 24.5212C81.5344 24.074 81.3996 23.5118 81.4082 22.8346V13.23Z" fill="white"/>
<path d="M78.9301 18.6802L76.0005 18.7584C75.9701 18.55 75.8872 18.3655 75.7524 18.2049C75.6175 18.0399 75.4412 17.9118 75.2241 17.8207C75.0107 17.7252 74.7626 17.6775 74.4799 17.6775C74.11 17.6775 73.7945 17.7512 73.5335 17.8988C73.2774 18.0464 73.1512 18.2461 73.1555 18.4979C73.1512 18.6933 73.2291 18.8625 73.39 19.0058C73.5558 19.1491 73.849 19.2641 74.2709 19.3509L76.2027 19.7155C77.203 19.9066 77.9472 20.2235 78.4346 20.6663C78.9258 21.1091 79.1739 21.6951 79.1782 22.4244C79.1739 23.1103 78.9697 23.7072 78.5652 24.2151C78.1649 24.723 77.6169 25.1181 76.9203 25.4002C76.2244 25.6781 75.4283 25.817 74.5319 25.817C73.1011 25.817 71.9721 25.5239 71.1457 24.9379C70.323 24.3475 69.8534 23.5575 69.7359 22.5676L72.8877 22.4896C72.9576 22.8542 73.1376 23.132 73.4296 23.323C73.7209 23.514 74.0927 23.6096 74.5455 23.6096C74.9544 23.6096 75.2872 23.5336 75.5439 23.3816C75.8 23.2297 75.9306 23.0278 75.9349 22.776C75.9306 22.5503 75.831 22.3702 75.6349 22.2355C75.4394 22.0967 75.1326 21.9881 74.715 21.91L72.9662 21.5779C71.961 21.3955 71.2131 21.0591 70.7213 20.5686C70.2295 20.0737 69.9858 19.4442 69.9902 18.6802C69.9858 18.0117 70.1646 17.4408 70.5252 16.9676C70.8865 16.4901 71.3999 16.1255 72.0655 15.8737C72.7312 15.6219 73.5162 15.496 74.4212 15.496C75.7784 15.496 76.8486 15.7804 77.6317 16.3491C78.4148 16.9134 78.8479 17.6905 78.9301 18.6802Z" fill="white"/>
<path d="M61.7243 19.9239V25.6281H58.5334V15.6263H61.5677V17.4625H61.6787C61.9007 16.8505 62.2793 16.3708 62.8144 16.0234C63.3495 15.6718 63.9866 15.496 64.7259 15.496C65.4311 15.496 66.0422 15.6545 66.56 15.9714C67.0815 16.2839 67.4861 16.7224 67.7737 17.2867C68.0651 17.8467 68.2086 18.5022 68.2043 19.2533V25.6281H65.0129V19.8784C65.0178 19.3227 64.8762 18.8886 64.5892 18.576C64.3065 18.2635 63.9124 18.1072 63.4076 18.1072C63.073 18.1072 62.7773 18.181 62.5206 18.3286C62.2682 18.4718 62.0721 18.6781 61.9329 18.9472C61.7983 19.2163 61.7287 19.5419 61.7243 19.9239Z" fill="white"/>
<path d="M51.8348 25.817C50.7821 25.817 49.8772 25.6021 49.1202 25.1723C48.3677 24.7382 47.7869 24.1348 47.378 23.3621C46.9733 22.585 46.7711 21.6842 46.7711 20.6597C46.7711 19.6309 46.9733 18.7302 47.378 17.9575C47.7869 17.1804 48.3677 16.577 49.1202 16.1472C49.8772 15.7131 50.7821 15.496 51.8348 15.496C52.8876 15.496 53.7904 15.7131 54.5429 16.1472C55.2999 16.577 55.8807 17.1804 56.2852 17.9575C56.6942 18.7302 56.8986 19.6309 56.8986 20.6597C56.8986 21.6842 56.6942 22.585 56.2852 23.3621C55.8807 24.1348 55.2999 24.7382 54.5429 25.1723C53.7904 25.6021 52.8876 25.817 51.8348 25.817ZM51.8545 23.4142C52.2372 23.4142 52.5614 23.297 52.8267 23.0625C53.0921 22.8281 53.2944 22.5025 53.4336 22.0858C53.5772 21.6691 53.6489 21.1872 53.6489 20.6402C53.6489 20.0846 53.5772 19.5984 53.4336 19.1816C53.2944 18.7649 53.0921 18.4393 52.8267 18.2049C52.5614 17.9705 52.2372 17.8533 51.8545 17.8533C51.4586 17.8533 51.1236 17.9705 50.8495 18.2049C50.5798 18.4393 50.3732 18.7649 50.2296 19.1816C50.0904 19.5984 50.0207 20.0846 50.0207 20.6402C50.0207 21.1872 50.0904 21.6691 50.2296 22.0858C50.3732 22.5025 50.5798 22.8281 50.8495 23.0625C51.1236 23.297 51.4586 23.4142 51.8545 23.4142Z" fill="white"/>
<path d="M45.3077 17.1239H42.045C42.0014 16.7897 41.9123 16.4879 41.7774 16.2188C41.6425 15.9496 41.4642 15.7196 41.2423 15.5286C41.0204 15.3376 40.7572 15.1921 40.4527 15.0923C40.1525 14.9881 39.8197 14.936 39.4543 14.936C38.8061 14.936 38.2471 15.0944 37.7772 15.4113C37.3117 15.7283 36.9528 16.1862 36.7006 16.7853C36.4526 17.3844 36.3286 18.1094 36.3286 18.9602C36.3286 19.8458 36.4547 20.5881 36.7071 21.1871C36.9637 21.7819 37.3226 22.2312 37.7838 22.5351C38.2492 22.8346 38.7996 22.9844 39.4347 22.9844C39.7915 22.9844 40.1155 22.9388 40.407 22.8476C40.7028 22.7565 40.9617 22.6241 41.1836 22.4504C41.4098 22.2725 41.5947 22.0576 41.7383 21.8058C41.8862 21.5497 41.9884 21.261 42.045 20.9397L45.3077 20.9592C45.2512 21.5497 45.0793 22.1313 44.7922 22.7044C44.5094 23.2774 44.12 23.8005 43.6241 24.2737C43.1282 24.7425 42.5234 25.1159 41.81 25.3937C41.1009 25.6715 40.2874 25.8104 39.3695 25.8104C38.1601 25.8104 37.0769 25.5456 36.1198 25.016C35.1671 24.4821 34.4144 23.705 33.8619 22.6849C33.3095 21.6647 33.0332 20.4231 33.0332 18.9602C33.0332 17.4929 33.3138 16.2492 33.875 15.229C34.4362 14.2089 35.1953 13.434 36.1524 12.9044C37.1095 12.3747 38.1818 12.1099 39.3695 12.1099C40.1786 12.1099 40.9269 12.2228 41.6142 12.4486C42.3016 12.6699 42.9063 12.9955 43.4283 13.4253C43.9504 13.8507 44.3745 14.3738 44.7008 14.9946C45.0271 15.6154 45.2294 16.3252 45.3077 17.1239Z" fill="white"/>
</g>
<defs>
<clipPath id="clip0_415_7">
<rect width="151" height="40" fill="white"/>
</clipPath>
</defs>
</svg>
