<svg width="346" height="211" viewBox="0 0 346 211" fill="none" xmlns="http://www.w3.org/2000/svg">
<path d="M257.5 115V116.5H259H291H292.5V115V100.5H307H308.5V99V84.5H323H324.5V83V68.5H339H340.5V67V51V49.5H339H324.5V35V33.5H323H308.5V19V17.5H307H292.5V3V1.5H291H259H257.5V3V19V20.5H259H273.5V35V36.5H275H289.5V51V52.5H291H305.5V65.5H291H289.5V67V81.5H275H273.5V83V97.5H259H257.5V99V115Z" fill="#F4D8A4" stroke="black" stroke-width="3"/>
<mask id="mask0_1761_2176" style="mask-type:alpha" maskUnits="userSpaceOnUse" x="259" y="3" width="80" height="112">
<path d="M289.5 99V113.5H260.5V100.5H275H276.5V99V84.5H291H292.5V83V68.5H307H308.5V67V51V49.5H307H292.5V35V33.5H291H276.5V19V17.5H275H260.5V4.5H289.5V19V20.5H291H305.5V35V36.5H307H321.5V51V52.5H323H337.5V65.5H323H321.5V67V81.5H307H305.5V83V97.5H291H289.5V99Z" fill="#F4D8A4" stroke="black" stroke-width="3"/>
</mask>
<g mask="url(#mask0_1761_2176)">
<path d="M243 115V99H259V83H275V67H291V51H275V35H259V19H243V3H275V19H291V35H307V51H323V67H307V83H291V99H275V115H243Z" fill="#CDAF84"/>
</g>
<mask id="path-4-outside-1_1761_2176" maskUnits="userSpaceOnUse" x="104" y="0" width="134" height="118" fill="black">
<rect fill="white" x="104" width="134" height="118"/>
<path fill-rule="evenodd" clip-rule="evenodd" d="M203 3V19H187V35H171V51H155V67H139V83H123V99H107V115H123H139V99H155V83H171V67H187V51H203V35H219V19H235V3H219H203Z"/>
</mask>
<path fill-rule="evenodd" clip-rule="evenodd" d="M203 3V19H187V35H171V51H155V67H139V83H123V99H107V115H123H139V99H155V83H171V67H187V51H203V35H219V19H235V3H219H203Z" fill="#FF6B6C"/>
<path d="M203 19V22H206V19H203ZM203 3V0H200V3H203ZM187 19V16H184V19H187ZM187 35V38H190V35H187ZM171 35V32H168V35H171ZM171 51V54H174V51H171ZM155 51V48H152V51H155ZM155 67V70H158V67H155ZM139 67V64H136V67H139ZM139 83V86H142V83H139ZM123 83V80H120V83H123ZM123 99V102H126V99H123ZM107 99V96H104V99H107ZM107 115H104V118H107V115ZM139 115V118H142V115H139ZM139 99V96H136V99H139ZM155 99V102H158V99H155ZM155 83V80H152V83H155ZM171 83V86H174V83H171ZM171 67V64H168V67H171ZM187 67V70H190V67H187ZM187 51V48H184V51H187ZM203 51V54H206V51H203ZM203 35V32H200V35H203ZM219 35V38H222V35H219ZM219 19V16H216V19H219ZM235 19V22H238V19H235ZM235 3H238V0H235V3ZM206 19V3H200V19H206ZM187 22H203V16H187V22ZM190 35V19H184V35H190ZM171 38H187V32H171V38ZM174 51V35H168V51H174ZM155 54H171V48H155V54ZM158 67V51H152V67H158ZM139 70H155V64H139V70ZM142 83V67H136V83H142ZM123 86H139V80H123V86ZM126 99V83H120V99H126ZM107 102H123V96H107V102ZM110 115V99H104V115H110ZM123 112H107V118H123V112ZM139 112H123V118H139V112ZM136 99V115H142V99H136ZM155 96H139V102H155V96ZM152 83V99H158V83H152ZM171 80H155V86H171V80ZM168 67V83H174V67H168ZM187 64H171V70H187V64ZM184 51V67H190V51H184ZM203 48H187V54H203V48ZM200 35V51H206V35H200ZM219 32H203V38H219V32ZM216 19V35H222V19H216ZM235 16H219V22H235V16ZM232 3V19H238V3H232ZM219 6H235V0H219V6ZM203 6H219V0H203V6Z" fill="black" mask="url(#path-4-outside-1_1761_2176)"/>
<mask id="mask1_1761_2176" style="mask-type:alpha" maskUnits="userSpaceOnUse" x="107" y="3" width="128" height="112">
<mask id="path-6-inside-2_1761_2176" fill="white">
<path fill-rule="evenodd" clip-rule="evenodd" d="M203 3V19H187V35H171V51H155V67H139V83H123V99H107V115H123H139V99H155V83H171V67H187V51H203V35H219V19H235V3H219H203Z"/>
</mask>
<path fill-rule="evenodd" clip-rule="evenodd" d="M203 3V19H187V35H171V51H155V67H139V83H123V99H107V115H123H139V99H155V83H171V67H187V51H203V35H219V19H235V3H219H203Z" fill="#FF5A45"/>
<path d="M203 19V22H206V19H203ZM203 3V0H200V3H203ZM187 19V16H184V19H187ZM187 35V38H190V35H187ZM171 35V32H168V35H171ZM171 51V54H174V51H171ZM155 51V48H152V51H155ZM155 67V70H158V67H155ZM139 67V64H136V67H139ZM139 83V86H142V83H139ZM123 83V80H120V83H123ZM123 99V102H126V99H123ZM107 99V96H104V99H107ZM107 115H104V118H107V115ZM139 115V118H142V115H139ZM139 99V96H136V99H139ZM155 99V102H158V99H155ZM155 83V80H152V83H155ZM171 83V86H174V83H171ZM171 67V64H168V67H171ZM187 67V70H190V67H187ZM187 51V48H184V51H187ZM203 51V54H206V51H203ZM203 35V32H200V35H203ZM219 35V38H222V35H219ZM219 19V16H216V19H219ZM235 19V22H238V19H235ZM235 3H238V0H235V3ZM206 19V3H200V19H206ZM187 22H203V16H187V22ZM190 35V19H184V35H190ZM171 38H187V32H171V38ZM174 51V35H168V51H174ZM155 54H171V48H155V54ZM158 67V51H152V67H158ZM139 70H155V64H139V70ZM142 83V67H136V83H142ZM123 86H139V80H123V86ZM126 99V83H120V99H126ZM107 102H123V96H107V102ZM110 115V99H104V115H110ZM123 112H107V118H123V112ZM139 112H123V118H139V112ZM136 99V115H142V99H136ZM155 96H139V102H155V96ZM152 83V99H158V83H152ZM171 80H155V86H171V80ZM168 67V83H174V67H168ZM187 64H171V70H187V64ZM184 51V67H190V51H184ZM203 48H187V54H203V48ZM200 35V51H206V35H200ZM219 32H203V38H219V32ZM216 19V35H222V19H216ZM235 16H219V22H235V16ZM232 3V19H238V3H232ZM219 6H235V0H219V6ZM203 6H219V0H203V6Z" fill="black" mask="url(#path-6-inside-2_1761_2176)"/>
</mask>
<g mask="url(#mask1_1761_2176)">
<path fill-rule="evenodd" clip-rule="evenodd" d="M220 3V19H204V35H188V51H172V67H156V83H140V99H124V115H140H156V99H172V83H188V67H204V51H220V35H236V19H252V3H236H220Z" fill="#BF3939"/>
</g>
<path d="M49.5 115V116.5H51H83H84.5V115V99V97.5H83H68.5V83V81.5H67H52.5V67V65.5H51H36.5V52.5H51H52.5V51V36.5H67H68.5V35V20.5H83H84.5V19V3V1.5H83H51H49.5V3V17.5H35H33.5V19V33.5H19H17.5V35V49.5H3H1.5V51V67V68.5H3H17.5V83V84.5H19H33.5V99V100.5H35H49.5V115Z" fill="#F4D8A4" stroke="black" stroke-width="3"/>
<mask id="mask2_1761_2176" style="mask-type:alpha" maskUnits="userSpaceOnUse" x="3" y="3" width="80" height="112">
<path d="M67 100.5H81.5V113.5H52.5V99V97.5H51H36.5V83V81.5H35H20.5V67V65.5H19H4.5V52.5H19H20.5V51V36.5H35H36.5V35V20.5H51H52.5V19V4.5H81.5V17.5H67H65.5V19V33.5H51H49.5V35V49.5H35H33.5V51V67V68.5H35H49.5V83V84.5H51H65.5V99V100.5H67Z" fill="#F4D8A4" stroke="black" stroke-width="3"/>
</mask>
<g mask="url(#mask2_1761_2176)">
<path d="M67 115.327V99.3271H51V83.3271H35V67.3271H19V51.3271H35V35.3271H51V19.3271H67V3.32715H99V19.3271H83V35.3271H67V51.3271H51V67.3271H67V83.3271H83V99.3271H99V115.327H67Z" fill="#CDAF84"/>
</g>
<path d="M6.2045 191L14.1405 146.2H24.3805C28.2632 146.2 31.5485 147.011 34.2365 148.632C36.9672 150.211 39.0365 152.472 40.4445 155.416C41.8525 158.317 42.5565 161.773 42.5565 165.784C42.5565 170.563 41.6178 174.872 39.7405 178.712C37.8632 182.509 35.0472 185.517 31.2925 187.736C27.5378 189.912 22.8232 191 17.1485 191H6.2045ZM14.1405 184.728H17.8525C21.7778 184.728 25.0418 183.939 27.6445 182.36C30.2898 180.781 32.2738 178.627 33.5965 175.896C34.9192 173.123 35.5805 169.987 35.5805 166.488C35.5805 162.136 34.5992 158.723 32.6365 156.248C30.6738 153.731 27.5592 152.472 23.2925 152.472H19.8365L14.1405 184.728ZM42.0835 191L63.2675 146.2H71.4595L76.8995 191H69.7955L68.6435 180.248H54.6915L49.8275 191H42.0835ZM65.7635 155.8L57.1875 174.808H68.0675L66.0835 155.8H65.7635ZM81.6105 191L89.5465 146.2H105.035C109.131 146.2 112.224 147.181 114.314 149.144C116.405 151.064 117.451 153.603 117.451 156.76C117.451 159.491 116.683 161.795 115.146 163.672C113.61 165.549 111.626 166.915 109.194 167.768L109.131 168.216C110.795 168.899 112.203 170.029 113.354 171.608C114.549 173.144 115.146 175.107 115.146 177.496C115.146 181.72 113.61 185.027 110.538 187.416C107.509 189.805 103.37 191 98.1225 191H81.6105ZM93.0025 164.888H101.386C104.288 164.888 106.485 164.291 107.979 163.096C109.514 161.901 110.282 160.131 110.282 157.784C110.282 154.072 107.893 152.216 103.115 152.216H95.2425L93.0025 164.888ZM89.4825 184.728H98.3785C101.408 184.728 103.819 184.088 105.611 182.808C107.445 181.485 108.362 179.608 108.362 177.176C108.32 175.085 107.616 173.485 106.25 172.376C104.928 171.224 103.072 170.648 100.682 170.648H91.9785L89.4825 184.728ZM120.945 191L128.882 146.2H135.666L128.818 184.92H150.897L149.81 191H120.945ZM173.593 191.384C172.014 191.384 170.67 190.872 169.561 189.848C168.451 188.781 167.897 187.501 167.897 186.008C167.897 184.515 168.451 183.256 169.561 182.232C170.67 181.208 172.014 180.696 173.593 180.696C175.214 180.696 176.558 181.208 177.625 182.232C178.734 183.256 179.289 184.515 179.289 186.008C179.289 187.501 178.734 188.781 177.625 189.848C176.558 190.872 175.214 191.384 173.593 191.384ZM211.136 191.768C206.357 191.768 202.709 190.104 200.192 186.776C197.717 183.405 196.48 178.883 196.48 173.208C196.48 169.709 196.949 166.317 197.888 163.032C198.869 159.704 200.277 156.717 202.112 154.072C203.989 151.427 206.314 149.336 209.088 147.8C211.861 146.221 215.04 145.432 218.624 145.432C223.402 145.432 226.965 146.776 229.312 149.464C231.701 152.109 232.789 155.629 232.576 160.024H225.088C225.13 157.677 224.512 155.736 223.232 154.2C221.994 152.621 220.053 151.832 217.408 151.832C215.274 151.832 213.354 152.429 211.648 153.624C209.941 154.776 208.469 156.355 207.232 158.36C206.037 160.323 205.098 162.52 204.416 164.952C203.776 167.341 203.456 169.795 203.456 172.312C203.456 176.451 204.181 179.672 205.632 181.976C207.082 184.237 209.237 185.368 212.096 185.368C214.613 185.368 216.704 184.664 218.368 183.256C220.032 181.805 221.248 179.907 222.016 177.56H229.504C228.224 182.04 226.069 185.539 223.04 188.056C220.01 190.531 216.042 191.768 211.136 191.768ZM234.151 191L242.087 146.2H248.871L242.023 184.92H264.103L263.015 191H234.151ZM286.221 191.768C283.235 191.768 280.611 191.064 278.349 189.656C276.131 188.205 274.509 186.2 273.485 183.64C272.504 181.08 272.312 178.072 272.909 174.616L277.965 146.2H284.749L279.629 175C279.075 178.413 279.459 181.059 280.781 182.936C282.104 184.771 284.131 185.688 286.861 185.688C289.763 185.688 292.152 184.813 294.029 183.064C295.949 181.315 297.208 178.627 297.805 175L302.925 146.2H309.709L304.589 174.936C303.523 180.995 301.368 185.325 298.125 187.928C294.883 190.488 290.915 191.768 286.221 191.768ZM308.021 191L315.957 146.2H331.445C335.541 146.2 338.634 147.181 340.725 149.144C342.815 151.064 343.861 153.603 343.861 156.76C343.861 159.491 343.093 161.795 341.557 163.672C340.021 165.549 338.037 166.915 335.605 167.768L335.541 168.216C337.205 168.899 338.613 170.029 339.765 171.608C340.959 173.144 341.557 175.107 341.557 177.496C341.557 181.72 340.021 185.027 336.949 187.416C333.919 189.805 329.781 191 324.533 191H308.021ZM319.413 164.888H327.797C330.698 164.888 332.895 164.291 334.389 163.096C335.925 161.901 336.693 160.131 336.693 157.784C336.693 154.072 334.303 152.216 329.525 152.216H321.653L319.413 164.888ZM315.893 184.728H324.789C327.818 184.728 330.229 184.088 332.021 182.808C333.855 181.485 334.773 179.608 334.773 177.176C334.73 175.085 334.026 173.485 332.661 172.376C331.338 171.224 329.482 170.648 327.093 170.648H318.389L315.893 184.728Z" fill="black"/>
</svg>
