<?xml version="1.0" encoding="UTF-8"?>
<svg id="Layer_2" data-name="Layer 2" xmlns="http://www.w3.org/2000/svg" xmlns:xlink="http://www.w3.org/1999/xlink" viewBox="0 0 428.4 80.18">
  <defs>
    <style>
      .cls-1 {
        fill: url(#linear-gradient);
      }

      .cls-2 {
        fill: #e6e6e6;
      }
    </style>
    <linearGradient id="linear-gradient" x1="122.33" y1="16.35" x2="40.63" y2="61.69" gradientUnits="userSpaceOnUse">
      <stop offset="0" stop-color="#e24848"/>
      <stop offset="1" stop-color="#cc3d3d"/>
    </linearGradient>
  </defs>
  <g id="Layer_1" data-name="Layer 1">
    <g>
      <path class="cls-2" d="M123.62,61.56V19.67h7.21v12.1h.93v29.79h-8.15ZM148.75,61.56l.04-25.95c0-3.05-.77-5.44-2.31-7.18-1.54-1.73-3.6-2.6-6.19-2.6s-4.62.88-6.19,2.64c-1.56,1.76-2.35,4.06-2.35,6.9l-3.88-2.48c0-2.74.66-5.18,1.98-7.33,1.32-2.15,3.1-3.84,5.35-5.08,2.25-1.24,4.8-1.86,7.64-1.86s5.51.63,7.6,1.88c2.09,1.25,3.69,3.01,4.79,5.26,1.1,2.25,1.65,4.86,1.65,7.84l-.04,27.97h-8.11ZM173.85,61.56l.04-26.11c0-3.03-.78-5.39-2.33-7.08-1.55-1.69-3.59-2.54-6.13-2.54-1.55,0-2.97.36-4.25,1.07-1.28.71-2.31,1.77-3.1,3.18-.79,1.41-1.18,3.17-1.18,5.29l-3.92-1.98c-.05-2.95.57-5.53,1.88-7.76,1.31-2.22,3.08-3.95,5.33-5.18,2.25-1.23,4.77-1.84,7.56-1.84,4.53,0,8.03,1.36,10.51,4.07s3.72,6.32,3.72,10.82l-.04,28.05h-8.11Z"/>
      <path class="cls-2" d="M207.17,62.73c-4.19,0-7.82-.94-10.9-2.83-3.08-1.89-5.45-4.49-7.12-7.82-1.67-3.32-2.5-7.16-2.5-11.5s.85-8.22,2.56-11.54c1.71-3.32,4.1-5.91,7.18-7.76,3.08-1.85,6.67-2.77,10.78-2.77s7.82.94,10.9,2.83c3.08,1.89,5.46,4.49,7.14,7.8,1.68,3.31,2.52,7.12,2.52,11.44s-.85,8.22-2.54,11.54c-1.69,3.32-4.08,5.92-7.16,7.8-3.08,1.87-6.7,2.81-10.86,2.81ZM207.17,55.08c4.01,0,7-1.35,8.98-4.05,1.98-2.7,2.97-6.19,2.97-10.45s-1-7.87-3.01-10.49c-2-2.62-4.98-3.94-8.94-3.94-2.71,0-4.95.61-6.71,1.84-1.76,1.23-3.06,2.92-3.92,5.08-.85,2.16-1.28,4.66-1.28,7.51,0,4.4,1.01,7.91,3.03,10.55s4.98,3.96,8.88,3.96Z"/>
      <path class="cls-2" d="M233.93,61.56V6.48h8.11v55.08h-8.11Z"/>
      <path class="cls-2" d="M247.47,26.18v-6.52h28.63v6.52h-28.63ZM276.1,61.56c-2.64.52-5.22.74-7.76.66-2.53-.08-4.8-.57-6.79-1.47-1.99-.91-3.49-2.33-4.5-4.27-.91-1.73-1.39-3.5-1.45-5.29-.06-1.8-.1-3.83-.1-6.11V6.48h8.15v38.21c0,1.68.02,3.14.06,4.38.04,1.24.3,2.29.79,3.14.93,1.6,2.41,2.52,4.44,2.73,2.03.22,4.42.14,7.16-.25v6.87Z"/>
      <path class="cls-2" d="M281.76,80.18V19.67h7.21v30.14h.93v30.37h-8.15ZM301.47,62.73c-4.01,0-7.37-.98-10.09-2.93-2.72-1.95-4.77-4.6-6.17-7.93s-2.09-7.1-2.09-11.29.69-7.95,2.08-11.29c1.38-3.34,3.43-5.97,6.13-7.89,2.7-1.93,6.03-2.89,9.99-2.89s7.33.96,10.18,2.89c2.86,1.93,5.06,4.55,6.61,7.87,1.55,3.32,2.33,7.09,2.33,11.31s-.77,7.96-2.31,11.31c-1.54,3.35-3.72,5.99-6.56,7.93-2.83,1.94-6.2,2.91-10.1,2.91ZM300.34,55.39c2.59,0,4.73-.66,6.42-1.98,1.69-1.32,2.96-3.1,3.8-5.33.84-2.24,1.26-4.74,1.26-7.51s-.42-5.22-1.26-7.45c-.84-2.22-2.13-4-3.86-5.31s-3.94-1.98-6.63-1.98c-2.54,0-4.62.62-6.27,1.86s-2.86,2.97-3.65,5.2c-.79,2.22-1.18,4.78-1.18,7.68s.39,5.46,1.16,7.68c.78,2.22,2,3.97,3.69,5.24,1.68,1.27,3.85,1.9,6.52,1.9Z"/>
      <path class="cls-2" d="M345.61,62.73c-4.19,0-7.82-.94-10.9-2.83-3.08-1.89-5.45-4.49-7.12-7.82-1.67-3.32-2.5-7.16-2.5-11.5s.85-8.22,2.56-11.54c1.71-3.32,4.1-5.91,7.18-7.76,3.08-1.85,6.67-2.77,10.78-2.77s7.82.94,10.9,2.83c3.08,1.89,5.46,4.49,7.14,7.8,1.68,3.31,2.52,7.12,2.52,11.44s-.85,8.22-2.54,11.54c-1.69,3.32-4.08,5.92-7.16,7.8-3.08,1.87-6.7,2.81-10.86,2.81ZM345.61,55.08c4.01,0,7-1.35,8.98-4.05,1.98-2.7,2.97-6.19,2.97-10.45s-1-7.87-3.01-10.49c-2-2.62-4.98-3.94-8.94-3.94-2.71,0-4.95.61-6.71,1.84-1.76,1.23-3.06,2.92-3.92,5.08-.85,2.16-1.28,4.66-1.28,7.51,0,4.4,1.01,7.91,3.03,10.55,2.02,2.64,4.98,3.96,8.88,3.96Z"/>
      <path class="cls-2" d="M389.79,62.73c-3.9,0-7.27-.97-10.1-2.91s-5.02-4.58-6.56-7.93c-1.54-3.35-2.31-7.12-2.31-11.31s.78-7.98,2.33-11.31c1.55-3.32,3.76-5.95,6.61-7.87,2.86-1.93,6.25-2.89,10.18-2.89s7.29.96,9.99,2.89c2.7,1.93,4.75,4.56,6.13,7.89,1.38,3.34,2.08,7.1,2.08,11.29s-.7,7.95-2.09,11.29-3.45,5.98-6.17,7.93c-2.72,1.95-6.08,2.93-10.09,2.93ZM390.91,55.39c2.66,0,4.84-.63,6.52-1.9,1.68-1.27,2.91-3.01,3.69-5.24.78-2.22,1.16-4.78,1.16-7.68s-.39-5.46-1.18-7.68c-.79-2.22-2-3.96-3.65-5.2s-3.73-1.86-6.26-1.86c-2.69,0-4.9.66-6.63,1.98s-3.02,3.09-3.86,5.31c-.84,2.22-1.26,4.71-1.26,7.45s.42,5.27,1.26,7.51c.84,2.24,2.11,4.01,3.8,5.33,1.69,1.32,3.83,1.98,6.42,1.98ZM402.28,61.56v-30.14h-.93V6.48h8.15v55.08h-7.21Z"/>
    </g>
    <path class="cls-2" d="M416.8,12.28c0-3.3,2.38-5.8,5.8-5.8s5.8,2.38,5.8,5.8-2.38,5.8-5.8,5.8-5.8-2.38-5.8-5.8ZM427.46,12.28c0-2.81-1.99-4.94-4.86-4.94s-4.86,2.02-4.86,4.94,1.99,4.94,4.86,4.94,4.86-2.02,4.86-4.94ZM420,12.25c0-1.66,1.1-2.81,2.68-2.81,1.4,0,2.38.86,2.53,2.21h-.91c-.15-.85-.77-1.4-1.62-1.4-1.01,0-1.72.82-1.72,1.99s.74,2.04,1.8,2.04c.8,0,1.41-.55,1.55-1.41h.91c-.15,1.35-1.13,2.23-2.48,2.23-1.61,0-2.72-1.17-2.72-2.85Z"/>
    <path class="cls-1" d="M91.5.62c-1.58-.42-3.17-.62-4.73-.62-6.27,0-12.1,3.28-15.37,8.99l-11.78,20.54-4.37-7.91c-2.32-4.2-6.57-6.73-11.36-6.77-4.77-.09-9.08,2.4-11.48,6.58L0,77.86h10.25l29.85-51.99c1.15-2,3.13-2.12,3.7-2.12.74.01,2.59.25,3.66,2.18l6.96,12.61-22.58,39.32h10.25l17.35-30.23,13.06,23.65c1.57,2.84,3.84,5.16,6.57,6.72,3.8,2.16,8.41,2.75,12.78,1.62,7.71-1.99,12.91-8.68,12.91-16.66V17.89c0-8.21-5.34-15.15-13.28-17.27ZM95.87,62.96c0,4.74-3.22,7.27-6.23,8.06-.7.18-1.46.28-2.24.28-2.56,0-5.36-1.12-7.12-4.31l-15.66-28.36,14.48-25.21c2.53-4.41,6.89-5.07,10.11-4.21,3.22.86,6.66,3.59,6.66,8.68v45.06Z"/>
  </g>
</svg>