<svg xmlns="http://www.w3.org/2000/svg" xmlns:xlink="http://www.w3.org/1999/xlink" width="112px" height="28px" viewBox="0 0 112 28"><title>StakVentures_Logo/Header_white</title><defs><polyline id="path-1" points="15.0366671 17.6036273 5.2491786 17.5911421 0 8.467867 4.90839795 0 15.0366671 17.6036273"></polyline><linearGradient x1="19.8678115%" y1="12.087707%" x2="67.7167142%" y2="110.483329%" id="linearGradient-3"><stop stop-color="#EEB47E" offset="0%"></stop><stop stop-color="#86452A" offset="100%"></stop></linearGradient><polyline id="path-4" points="20.313576 0.0315415955 15.4054409 8.49914575 4.88224471 8.48560915 0 0 20.313576 0.0315415955"></polyline><linearGradient x1="100.357711%" y1="50%" x2="1.15736967%" y2="50%" id="linearGradient-6"><stop stop-color="#EEB47E" offset="0%"></stop><stop stop-color="#86452A" offset="100%"></stop></linearGradient><linearGradient x1="80.1327624%" y1="87.9130396%" x2="32.2838598%" y2="-10.4825825%" id="linearGradient-7"><stop stop-color="#EEB47E" offset="0%"></stop><stop stop-color="#86452A" offset="100%"></stop></linearGradient><polyline id="path-8" points="0 8.46760415 4.90826653 0 15.4313313 0.0134051781 20.313576 8.49901433 0 8.46760415"></polyline><linearGradient x1="-0.357128993%" y1="50.0007732%" x2="98.8432126%" y2="50.0007732%" id="linearGradient-10"><stop stop-color="#EEB47E" offset="0%"></stop><stop stop-color="#86452A" offset="100%"></stop></linearGradient></defs><g id="StakVentures_Logo/Header_white" stroke="none" stroke-width="1" fill="none" fill-rule="evenodd"><g id="Group"><g id="Group-32" transform="translate(0, 0.6353)"><mask id="mask-2" fill="white"><use xlink:href="#path-1"></use></mask><g id="Clip-31"></g><polyline id="Fill-30" fill="url(#linearGradient-3)" mask="url(#mask-2)" points="15.0366671 17.6036273 5.2491786 17.5911421 0 8.467867 4.90839795 0 15.0366671 17.6036273"></polyline></g><g id="Group-35" transform="translate(6.0133, 0)"><mask id="mask-5" fill="white"><use xlink:href="#path-4"></use></mask><g id="Clip-34"></g><polyline id="Fill-33" fill="url(#linearGradient-6)" mask="url(#mask-5)" points="20.313576 0.0315415955 15.4054409 8.49914575 4.88224471 8.48560915 0 0 20.313576 0.0315415955"></polyline></g><polyline id="Fill-36" fill="url(#linearGradient-7)" points="11.6291234 9.76107241 21.4167433 9.77355763 26.6657905 18.8968327 21.757524 27.3646997 11.6291234 9.76107241"></polyline><g id="Group-41" transform="translate(0.3389, 19.501)"><mask id="mask-9" fill="white"><use xlink:href="#path-8"></use></mask><g id="Clip-40"></g><polyline id="Fill-39" fill="url(#linearGradient-10)" mask="url(#mask-9)" points="0 8.46760415 4.90826653 0 15.4313313 0.0134051781 20.313576 8.49901433 0 8.46760415"></polyline></g></g><g id="Group" transform="translate(36.2849, 2)" fill="#FFFFFF"><path d="M15.5197792,10.8797477 C15.5197792,15.1312919 11.3142331,16.3197529 7.93139703,16.3197529 C6.05730057,16.3197529 1.05138652,16.3197529 0,11.8855303 L2.94782494,10.3085819 C4.20554606,12.754107 6.14798265,12.8684453 7.56472598,12.8684453 C8.91444342,12.8684453 11.8859246,12.7768432 11.8859246,11.1540281 C11.8859246,7.88566172 0.114338284,11.8855303 0.114338284,5.00578263 C0.114338284,1.69154948 3.93087134,0 7.72506243,0 C11.2905769,0 14.8337495,1.48574057 15.1531082,4.57142857 L12.4563017,5.62294651 C11.8859246,3.70298331 9.75949533,2.94861348 7.77106059,2.94861348 C5.8049678,2.94861348 3.9768695,3.67998423 3.9768695,4.68576686 C3.9768695,7.88566172 15.5197792,4.34288343 15.5197792,10.8797477" id="Fill-42"></path><polyline id="Fill-43" points="34.8166645 3.79432251 28.4163491 3.79432251 28.4163491 15.7483244 25.1255093 15.7483244 25.1255093 3.79432251 18.7251938 3.79432251 18.7251938 0.548560915 34.8166645 0.548560915 34.8166645 3.79432251"></polyline><path d="M42.8794848,8.89131292 L47.7934025,8.89131292 L45.6222894,4.29714811 L45.050598,4.29714811 C44.9139177,4.54842949 44.1135497,6.26284663 42.8794848,8.89131292 Z M49.3021422,12.0912078 L41.3484032,12.0912078 C40.8227099,13.2341963 40.2510185,14.4683927 39.6346432,15.7483244 L35.885136,15.7483244 L43.2908398,0.548560915 L47.3820476,0.548560915 L54.7877513,15.7483244 L51.0395584,15.7483244 L49.3021422,12.0912078 L49.3021422,12.0912078 Z" id="Fill-44"></path><path d="M67.8630569,6.60573006 C71.634906,11.8855303 73.5090025,13.2569326 75.1767644,12.9370482 L75.2227625,15.7483244 C71.1775529,16.7083717 70.1708503,14.3084505 65.4856091,8.64003154 L62.3537916,11.3139703 L62.3537916,15.7483244 L59.0629518,15.7483244 L59.0629518,0.548560915 L62.3537916,0.548560915 L62.3537916,7.90852937 L70.9488763,0.548560915 L74.9480878,0.548560915 L67.8630569,6.60573006" id="Fill-45"></path></g><g id="VENTURES" transform="translate(35.8653, 21)" fill="#FFFFFF" fill-rule="nonzero"><path d="M3.51999517,4.42104656 L3.39367955,4.42104656 C3.19999561,4.01683659 2.43368087,2.44210191 1.36420865,0.202104986 L0,0.202104986 L2.78736459,5.8020973 L4.12631012,5.8020973 L6.91367472,0.202104986 L5.54946607,0.202104986 C4.47999385,2.44210191 3.71367911,4.01683659 3.51999517,4.42104656 Z" id="Path"></path><polygon id="Path" points="13.9484127 4.61473051 9.83894469 4.61473051 9.83894469 3.52841621 13.0894665 3.52841621 13.0894665 2.29894421 9.83894469 2.29894421 9.83894469 1.39789282 13.796834 1.39789282 13.796834 0.202104986 8.62631477 0.202104986 8.62631477 5.8020973 13.9484127 5.8020973"></polygon><polygon id="Path" points="21.5389387 0.202104986 20.3263088 0.202104986 20.3263088 3.94946826 17.1768394 0.202104986 15.9557885 0.202104986 15.9557885 5.8020973 17.1684184 5.8020973 17.1684184 2.07999714 20.3263088 5.8020973 21.5389387 5.8020973"></polygon><polygon id="Path" points="29.2473602 0.202104986 23.3189473 0.202104986 23.3189473 1.39789282 25.6768388 1.39789282 25.6768388 5.8020973 26.8894687 5.8020973 26.8894687 1.39789282 29.2473602 1.39789282"></polygon><path d="M33.604206,6.00420228 C35.3052563,6.00420228 36.3242022,5.08630881 36.3242022,3.73052119 L36.3242022,0.202104986 L35.1115723,0.202104986 L35.1115723,3.43578476 C35.1115723,4.32841511 34.6652571,4.77473029 33.604206,4.77473029 C32.5431548,4.77473029 32.0968396,4.32841511 32.0968396,3.43578476 L32.0968396,0.202104986 L30.8842097,0.202104986 L30.8842097,3.73052119 C30.8842097,5.08630881 31.9031557,6.00420228 33.604206,6.00420228 Z" id="Path"></path><path d="M41.8347314,3.55367933 L42.2220993,4.98525631 C42.3905201,5.59999231 42.769467,5.97051812 43.4431503,5.97051812 C43.6957815,5.97051812 43.9905179,5.91157083 44.3273596,5.8020973 L44.3273596,4.61473051 C44.2347281,4.67367779 44.0915704,4.72420404 43.9399917,4.72420404 C43.7463078,4.72420404 43.5442028,4.63157259 43.4684134,4.36209927 L43.1652559,3.37683747 C43.9063075,3.23367977 44.3610438,2.65262794 44.3610438,1.86105008 C44.3610438,0.892630354 43.5526238,0.193683945 42.2810466,0.193683945 C42.2136783,0.193683945 42.14631,0.202104986 38.6263148,0.202104986 L38.6263148,5.8020973 L39.8389447,5.8020973 L39.8389447,3.55367933 L41.8347314,3.55367933 Z M39.8389447,2.49262816 L39.8389447,1.4147349 L42.1210468,1.39789282 C42.6010462,1.39789282 42.8452564,1.5999978 42.8452564,1.91999736 C42.8452564,2.24841797 42.5926251,2.49262816 42.0873627,2.49262816 L39.8389447,2.49262816 Z" id="Shape"></path><polygon id="Path" points="51.7999917 4.61473051 47.6905236 4.61473051 47.6905236 3.52841621 50.9410455 3.52841621 50.9410455 2.29894421 47.6905236 2.29894421 47.6905236 1.39789282 51.6484129 1.39789282 51.6484129 0.202104986 46.4778937 0.202104986 46.4778937 5.8020973 51.7999917 5.8020973"></polygon><path d="M54.8515765,1.72631342 C54.8515765,1.35578761 55.5252598,1.0863143 56.2494693,1.0863143 C56.9820999,1.0863143 57.7652567,1.36420865 57.9757827,2.0715761 L58.9694656,1.68420821 C58.851571,0.54736767 57.5463096,0 56.2326272,0 C54.8347344,0 53.4284206,0.623157039 53.4284206,1.84420799 C53.4284206,4.37894136 57.7652567,2.90525917 57.7652567,4.10946804 C57.7652567,4.70736196 56.6705214,4.74104612 56.1736799,4.74104612 C55.6515754,4.74104612 54.9357869,4.69894092 54.4726296,3.79788952 L53.3863154,4.37894136 C53.7736832,6.01262332 55.6178912,6.01262332 56.3084166,6.01262332 C57.5547307,6.01262332 59.1042022,5.57472919 59.1042022,4.00841555 C59.1042022,1.5999978 54.8515765,2.90525917 54.8515765,1.72631342 Z" id="Path"></path></g></g></svg>