<svg width="1001" height="131" viewBox="0 0 1001 131" fill="none" xmlns="http://www.w3.org/2000/svg">
<g clip-path="url(#clip0_29_16)">
<path d="M63.9591 0C67.2942 0 71.1931 1.67095 73.4143 4.08007L86.3927 16.8705C88.8018 19.2797 90.2849 22.9906 90.2849 26.3258L90.097 35.969C90.097 39.3042 87.8758 41.5321 84.5339 41.5321H67.8512C64.516 41.5321 62.2881 39.3109 62.2881 35.969V32.4459L58.3959 26.8828H32.2513L27.8022 32.4459L27.9901 43.3843L85.0909 63.9658C88.2448 65.0797 90.2849 68.0458 90.2849 71.381V103.827C90.2849 107.162 88.8018 110.873 86.3927 113.282L73.4143 126.261C71.1931 128.489 67.2942 130.153 63.9591 130.153H26.3258C22.9906 130.153 19.2797 128.482 16.8705 126.261L3.89217 113.282C1.66424 110.873 0 107.162 0 103.827L0.187898 94.1838C0.187898 90.8486 2.41583 88.6206 5.75101 88.6206H22.4404C25.7755 88.6206 28.0035 90.8486 28.0035 94.1838V97.7068L32.2714 103.27H58.4161L62.4961 97.7068L62.3082 86.9564L5.19403 66.3749C2.04003 65.2609 0 62.2948 0 58.9596V26.3325C0 22.9973 1.67095 19.2864 3.89217 16.8772L16.8705 4.08007C19.2797 1.67095 22.9906 0 26.3258 0H63.9591Z" fill="white"/>
<path d="M193.555 0C196.89 0 199.118 2.22122 199.118 5.56312V103.827C199.118 107.162 197.635 110.873 195.226 113.282L182.247 126.261C179.838 128.67 176.127 130.153 172.792 130.153H135.159C131.824 130.153 128.113 128.67 125.704 126.261L112.725 113.282C110.316 110.873 108.833 107.162 108.833 103.827V5.56312C108.833 2.22793 111.061 0 114.396 0H131.079C134.414 0 136.642 2.22122 136.642 5.56312V98.8208L140.903 103.27H167.048L171.309 98.8208V5.56312C171.309 2.22793 173.53 0 176.872 0H193.555Z" fill="white"/>
<path d="M217.652 5.56312C217.652 2.22793 219.88 0 223.215 0H281.618C284.953 0 288.664 1.48305 291.073 3.89217L304.052 16.6826C306.461 19.0918 307.944 22.8027 307.944 26.1379L308.132 52.0947C308.132 55.4298 306.649 59.1408 304.24 61.5499L291.261 74.5283C288.852 76.9374 285.141 78.4205 281.806 78.4205H245.468V124.583C245.468 127.918 243.247 130.146 239.905 130.146H223.215C219.88 130.146 217.652 127.918 217.652 124.583V5.56312ZM245.468 51.5377H275.686L280.135 46.9006V31.8822L275.686 26.8761H245.468V51.5377Z" fill="white"/>
<path d="M326.667 5.56312C326.667 2.22793 328.895 0 332.23 0H411.395C414.731 0 416.959 2.22122 416.959 5.56312V21.3197C416.959 24.6549 414.731 26.8828 411.395 26.8828H354.476V50.2425H397.491C400.826 50.2425 403.054 52.4705 403.054 55.8056V71.5622C403.054 74.8974 400.826 77.1253 397.491 77.1253H354.476V103.27H411.395C414.731 103.27 416.959 105.491 416.959 108.833V124.59C416.959 127.925 414.731 130.153 411.395 130.153H332.23C328.895 130.153 326.667 127.925 326.667 124.59V5.56312Z" fill="white"/>
<path d="M435.5 5.56312C435.5 2.22793 437.728 0 441.063 0H499.09C502.425 0 506.317 1.48305 508.733 3.89217L521.523 16.5015C523.745 18.9106 525.416 22.6216 525.416 25.9567L525.604 51.9135C525.604 55.2487 524.12 59.1408 521.711 61.3688L507.995 75.2732L523.013 104.565C524.684 107.531 525.61 111.799 525.61 115.134V124.59C525.61 127.925 523.382 130.153 520.047 130.153H503.358C500.023 130.153 497.795 127.925 497.795 124.59V113.463L479.441 78.2393L463.309 78.4272V124.59C463.309 127.925 461.088 130.153 457.746 130.153H441.056C437.721 130.153 435.493 127.925 435.493 124.59V5.56312H435.5ZM492.97 51.5377L497.607 45.9746V31.701L492.97 26.8828H463.302V51.5444H492.97V51.5377Z" fill="white"/>
<path d="M544.146 5.56312C544.146 2.22793 546.373 0 549.709 0H566.398C569.733 0 571.961 2.22122 571.961 5.56312V6.85827L606.628 68.5961V5.56312C606.628 2.22793 608.856 0 612.191 0H628.874C632.209 0 634.437 2.22122 634.437 5.56312V124.59C634.437 127.925 632.216 130.153 628.874 130.153H612.191C608.856 130.153 606.628 127.925 606.628 124.59V123.294L571.961 61.7445V124.596C571.961 127.932 569.74 130.159 566.398 130.159H549.709C546.373 130.159 544.146 127.932 544.146 124.596V5.56312Z" fill="white"/>
<path d="M652.972 5.56312C652.972 2.22793 655.193 0 658.535 0H737.7C741.035 0 743.263 2.22122 743.263 5.56312V21.3197C743.263 24.6549 741.042 26.8828 737.7 26.8828H680.781V50.2425H723.796C727.131 50.2425 729.359 52.4705 729.359 55.8056V71.5622C729.359 74.8974 727.138 77.1253 723.796 77.1253H680.781V103.27H737.7C741.035 103.27 743.263 105.491 743.263 108.833V124.59C743.263 127.925 741.042 130.153 737.7 130.153H658.535C655.2 130.153 652.972 127.925 652.972 124.59V5.56312Z" fill="white"/>
<path d="M792.942 26.8828H767.354C764.019 26.8828 761.791 24.6616 761.791 21.3197V5.56312C761.791 2.22793 764.012 0 767.354 0H846.519C849.855 0 852.083 2.22122 852.083 5.56312V21.3197C852.083 24.6549 849.855 26.8828 846.519 26.8828H820.751V124.59C820.751 127.925 818.523 130.153 815.188 130.153H798.505C795.17 130.153 792.942 127.925 792.942 124.59V26.8828Z" fill="white"/>
</g>
<g clip-path="url(#clip1_29_16)">
<path d="M995.474 0.0761719H913.936C911.167 0.0761719 908.089 1.11522 906.089 2.80688L895.32 11.9097C893.32 13.6 892.09 16.201 892.09 18.5412V44.9404C892.09 47.2806 893.32 49.8816 895.32 51.5719L906.089 60.6747C906.1 60.6842 906.11 60.6923 906.121 60.7018C907.981 62.257 910.706 62.2205 912.616 60.7288L969.851 16.0632C971.798 14.5431 974.448 16.7442 973.305 18.9344L952.731 58.3967C951.542 60.6774 953.199 63.4068 955.772 63.4068H995.473C998.243 63.4068 1000.09 61.8462 1000.09 59.506V3.977C1000.09 1.63677 998.243 0.0761719 995.473 0.0761719H995.474Z" fill="white"/>
<path d="M996.858 78.5787L986.089 69.4758C986.079 69.4664 986.068 69.4583 986.057 69.4488C984.198 67.8936 981.473 67.9301 979.562 69.4218L922.327 114.089C920.38 115.609 917.731 113.408 918.873 111.217L939.447 71.7552C940.637 69.4745 938.981 66.7451 936.406 66.7451H896.705C893.936 66.7451 892.09 68.3057 892.09 70.6459V126.175C892.09 128.515 893.936 130.076 896.705 130.076H978.243C981.013 130.076 984.091 129.037 986.091 127.345L996.859 118.242C998.859 116.552 1000.09 113.951 1000.09 111.611V85.2115C1000.09 82.8713 998.859 80.2703 996.859 78.58L996.858 78.5787Z" fill="white"/>
</g>
<defs>
<clipPath id="clip0_29_16">
<rect width="852.09" height="130.153" fill="white"/>
</clipPath>
<clipPath id="clip1_29_16">
<rect width="108" height="130" fill="white" transform="translate(892.09 0.0761719)"/>
</clipPath>
</defs>
</svg>
